<svg width="105" height="62" viewBox="0 0 105 62" fill="none" xmlns="http://www.w3.org/2000/svg">
<path d="M12.9357 24.03C14.2166 24.9996 15.1441 26.3626 15.5757 27.91V22.77H17.0058V40.03H15.5757V34.86C15.1467 36.4114 14.219 37.7784 12.9357 38.75C11.5595 39.7624 9.88337 40.2835 8.17575 40.23C6.68599 40.2575 5.21571 39.8882 3.91575 39.16C2.66442 38.4413 1.65237 37.3701 1.00576 36.08C0.29378 34.6149 -0.0495035 32.998 0.00575654 31.37C-0.0494777 29.7484 0.293888 28.1381 1.00576 26.68C1.65542 25.3947 2.66697 24.3275 3.91575 23.61C5.2165 22.8849 6.68684 22.519 8.17575 22.55C9.88401 22.4918 11.5617 23.0135 12.9357 24.03ZM3.33574 25.85C1.99614 27.3668 1.30654 29.3494 1.41574 31.37C1.30501 33.4012 1.99015 35.3957 3.32575 36.93C3.99721 37.6098 4.80517 38.1396 5.69632 38.4843C6.58748 38.8291 7.54159 38.981 8.49575 38.93C9.77424 38.9459 11.034 38.6215 12.1458 37.99C13.2212 37.3727 14.0934 36.4553 14.6558 35.35C15.2862 34.1128 15.5989 32.7382 15.5658 31.35C15.6032 29.9614 15.2902 28.5858 14.6558 27.35C14.0923 26.2397 13.2163 25.3185 12.1357 24.7C11.0258 24.064 9.76483 23.7393 8.48575 23.76C7.5284 23.7248 6.57445 23.8928 5.68676 24.2531C4.79907 24.6133 3.99778 25.1576 3.33574 25.85ZM14.0857 17.35L7.86576 21.35V20.2L14.0857 16.03V17.35Z" fill="black"/>
<path d="M47.4157 24.33C48.7368 25.8882 49.3939 27.9025 49.2457 29.94V40.03H47.8457V30.03C47.961 28.3362 47.4404 26.6603 46.3857 25.33C45.8775 24.7845 45.2561 24.3569 44.5651 24.077C43.8741 23.7972 43.1303 23.6719 42.3857 23.71C41.5711 23.6768 40.759 23.8215 40.0061 24.1341C39.2531 24.4467 38.5773 24.9196 38.0257 25.52C36.8332 27.0298 36.2482 28.9309 36.3857 30.85V40.03H34.9957V30.03C35.1143 28.3326 34.5855 26.6532 33.5157 25.33C33.0059 24.7867 32.3842 24.3605 31.6936 24.0808C31.003 23.8011 30.26 23.6746 29.5157 23.71C28.7057 23.6785 27.8987 23.8241 27.1508 24.1367C26.4029 24.4493 25.7323 24.9214 25.1857 25.52C23.9932 27.0298 23.4082 28.9309 23.5457 30.85V40.03H22.1157V22.77H23.5457V27.25C23.8549 25.8024 24.6883 24.5203 25.8857 23.65C27.0532 22.8228 28.4552 22.3917 29.8857 22.42C31.3253 22.3937 32.7327 22.8475 33.8857 23.71C35.0793 24.6623 35.8775 26.0234 36.1257 27.53C36.4231 26.0026 37.2787 24.6408 38.5257 23.71C39.7278 22.847 41.1761 22.3947 42.6557 22.42C43.5389 22.3849 44.4196 22.5369 45.2399 22.866C46.0603 23.1952 46.8018 23.6941 47.4157 24.33Z" fill="black"/>
<path d="M67.2859 23.61C68.5317 24.3281 69.5398 25.3954 70.1859 26.68C70.915 28.1337 71.2756 29.7442 71.2359 31.37C71.2756 33.0022 70.9151 34.6193 70.1859 36.08C69.5429 37.3694 68.5342 38.4407 67.2859 39.16C65.9824 39.8886 64.5088 40.2578 63.0159 40.23C61.3152 40.2775 59.6473 39.7567 58.2758 38.75C56.9917 37.7832 56.0691 36.4134 55.6559 34.86V40.03H54.2559V16.52H55.6559V27.91C56.0719 26.3606 56.9941 24.9948 58.2758 24.03C59.6452 23.0192 61.3146 22.4979 63.0159 22.55C64.5079 22.5192 65.9814 22.8849 67.2859 23.61ZM59.0759 24.76C57.9969 25.3838 57.119 26.3033 56.5459 27.41C55.9034 28.6432 55.5867 30.0201 55.6259 31.41C55.5911 32.7995 55.9075 34.1753 56.5459 35.41C57.1232 36.5059 58.0008 37.4147 59.0759 38.03C60.1876 38.6614 61.4474 38.9859 62.7259 38.97C63.6782 39.0183 64.6301 38.8651 65.5192 38.5205C66.4083 38.1758 67.2148 37.6475 67.8858 36.97C69.2288 35.4394 69.9181 33.4432 69.8058 31.41C69.9151 29.3893 69.2255 27.4068 67.8858 25.89C67.2148 25.2125 66.4083 24.6842 65.5192 24.3396C64.6301 23.995 63.6782 23.8418 62.7259 23.89C61.4532 23.848 60.1927 24.1484 59.0759 24.76Z" fill="black"/>
<path d="M87.7056 24.03C88.9866 24.9975 89.9113 26.3618 90.3356 27.91V22.77H91.7656V40.03H90.3356V34.86C89.914 36.4122 88.989 37.7805 87.7056 38.75C86.3287 39.7609 84.653 40.2819 82.9456 40.23C81.4459 40.2614 79.9649 39.892 78.6556 39.16C77.4046 38.444 76.3951 37.3718 75.7556 36.08C75.0264 34.6193 74.6659 33.0022 74.7056 31.37C74.6659 29.7442 75.0265 28.1336 75.7556 26.68C76.3987 25.3933 77.4076 24.3253 78.6556 23.61C79.96 22.8849 81.4335 22.5191 82.9256 22.55C84.6404 22.4888 86.3254 23.0105 87.7056 24.03ZM78.1056 25.85C76.766 27.3667 76.0764 29.3493 76.1856 31.37C76.0721 33.3998 76.7536 35.3941 78.0856 36.93C78.7589 37.6101 79.5687 38.1399 80.4615 38.4846C81.3543 38.8293 82.3099 38.9811 83.2656 38.93C84.5441 38.9458 85.8038 38.6214 86.9156 37.99C87.9947 37.3606 88.8696 36.4337 89.4356 35.32C90.0579 34.0802 90.3669 32.7068 90.3356 31.32C90.3714 29.9327 90.0622 28.5582 89.4356 27.32C88.866 26.214 87.9915 25.2944 86.9156 24.67C85.8057 24.034 84.5447 23.7093 83.2656 23.73C82.3043 23.6971 81.3471 23.8692 80.4575 24.2347C79.5678 24.6002 78.7661 25.1508 78.1056 25.85Z" fill="black"/>
<path d="M100.655 23.4898C101.951 22.7313 103.436 22.36 104.935 22.4198V24.0298H104.455C102.868 23.9787 101.315 24.4965 100.076 25.4898C98.8955 26.4565 98.3055 28.0331 98.3055 30.2198V40.0298H96.8755V22.7698H98.3055V26.5798C98.6905 25.3001 99.5251 24.2027 100.655 23.4898Z" fill="black"/>
<path d="M79.3856 18.9499C79.2657 18.9526 79.1477 18.9199 79.0463 18.8558C78.945 18.7918 78.8647 18.6993 78.8156 18.5899C76.4652 13.4165 72.6748 9.02917 67.8975 5.95237C63.1202 2.87557 57.558 1.23941 51.8756 1.23941C46.1932 1.23941 40.631 2.87557 35.8537 5.95237C31.0764 9.02917 27.286 13.4165 24.9356 18.5899C24.8659 18.7405 24.7397 18.8575 24.5843 18.9155C24.4289 18.9735 24.2569 18.9679 24.1056 18.8999C23.9576 18.8305 23.843 18.7053 23.7868 18.5517C23.7306 18.3981 23.7373 18.2286 23.8056 18.0799C26.2543 12.6891 30.2035 8.11733 35.1812 4.91116C40.159 1.70498 45.9547 0 51.8756 0C57.7965 0 63.5922 1.70498 68.57 4.91116C73.5477 8.11733 77.4969 12.6891 79.9456 18.0799C80.0132 18.2298 80.0185 18.4004 79.9604 18.5541C79.9022 18.7079 79.7854 18.8323 79.6356 18.8999C79.5558 18.9309 79.4712 18.9479 79.3856 18.9499Z" fill="black"/>
<path d="M51.8754 61.66C46.0788 61.6349 40.4049 59.9882 35.4955 56.9061C30.5862 53.824 26.6372 49.4297 24.0954 44.22C24.0599 44.1473 24.0393 44.0682 24.0347 43.9873C24.0301 43.9065 24.0416 43.8256 24.0686 43.7493C24.0956 43.6729 24.1375 43.6027 24.1919 43.5428C24.2463 43.4828 24.3121 43.4343 24.3854 43.4C24.533 43.3299 24.7022 43.3199 24.857 43.3722C25.0119 43.4244 25.1404 43.5348 25.2154 43.68C27.6348 48.6953 31.4198 52.9264 36.1357 55.8874C40.8516 58.8484 46.307 60.4191 51.8754 60.4191C57.4438 60.4191 62.8992 58.8484 67.6151 55.8874C72.331 52.9264 76.116 48.6953 78.5354 43.68C78.6158 43.5484 78.7423 43.4514 78.8903 43.408C79.0383 43.3647 79.1972 43.378 79.3358 43.4455C79.4745 43.513 79.5831 43.6297 79.6403 43.7729C79.6976 43.9161 79.6994 44.0755 79.6454 44.22C77.11 49.4325 73.1639 53.8298 68.2552 56.9125C63.3465 59.9952 57.6718 61.64 51.8754 61.66Z" fill="black"/>
</svg>
