<svg width="29" height="36" viewBox="0 0 29 36" fill="none" xmlns="http://www.w3.org/2000/svg">
<path d="M27.15 35.9711H1.49002C1.09829 35.9711 0.722282 35.8169 0.44342 35.5417C0.164559 35.2666 0.00525814 34.8927 0 34.5011V8.82105C0 8.42588 0.157003 8.04689 0.436432 7.76746C0.715861 7.48803 1.09485 7.33105 1.49002 7.33105H27.15C27.5435 7.3337 27.9199 7.49184 28.1971 7.77098C28.4744 8.05013 28.63 8.42761 28.63 8.82105V34.5011C28.6248 34.891 28.4669 35.2634 28.1902 35.5382C27.9134 35.8131 27.54 35.9685 27.15 35.9711ZM1.83002 34.1411H26.83V9.14105H1.83002V34.1411Z" fill="black"/>
<path d="M20.0896 14.9612C19.8483 14.9612 19.6168 14.8653 19.4461 14.6947C19.2755 14.524 19.1796 14.2926 19.1796 14.0512V6.4412C19.1777 5.15033 18.6633 3.91303 17.7496 3.00121C17.3015 2.54773 16.7672 2.18849 16.1781 1.94463C15.589 1.70076 14.9571 1.57719 14.3196 1.58121C13.0297 1.5812 11.7926 2.09292 10.8795 3.00406C9.96653 3.9152 9.45226 5.15133 9.44962 6.4412V14.0512C9.42594 14.2774 9.31933 14.4868 9.15036 14.639C8.98139 14.7912 8.76202 14.8754 8.53461 14.8754C8.30719 14.8754 8.08786 14.7912 7.91888 14.639C7.74991 14.4868 7.64331 14.2774 7.61963 14.0512V6.4412C7.68653 4.71035 8.42116 3.07268 9.6694 1.87175C10.9176 0.670832 12.5825 0 14.3146 0C16.0467 0 17.7116 0.670832 18.9598 1.87175C20.2081 3.07268 20.9427 4.71035 21.0096 6.4412V14.0512C21.007 14.2935 20.9089 14.5249 20.7366 14.6953C20.5644 14.8657 20.3319 14.9612 20.0896 14.9612Z" fill="black"/>
</svg>
