<svg width="96" height="99" viewBox="0 0 96 99" fill="none" xmlns="http://www.w3.org/2000/svg">
<path d="M50.7608 67.2666C50.5406 67.2683 50.3253 67.1994 50.1433 67.0691C49.9613 66.9389 49.8214 66.7534 49.7422 66.5375C49.6897 66.3976 49.664 66.2483 49.6667 66.098C49.6694 65.9477 49.7003 65.7994 49.7577 65.6617C49.8151 65.5241 49.8979 65.3997 50.0012 65.2958C50.1046 65.1919 50.2264 65.1105 50.3598 65.0564L73.5167 55.6116C73.7854 55.5013 74.0848 55.5078 74.3489 55.6296C74.6131 55.7514 74.8205 55.9785 74.9254 56.261C75.0303 56.5435 75.0241 56.8583 74.9083 57.136C74.7925 57.4138 74.5764 57.6318 74.3077 57.7421L51.1617 67.1869C51.0331 67.2364 50.8977 67.2634 50.7608 67.2666Z" fill="black"/>
<path d="M44.366 65.1333C44.1423 65.1332 43.924 65.0627 43.7409 64.9314C43.5578 64.8 43.4188 64.6142 43.3427 64.3993L43.125 63.7987C40.4579 56.3803 35.5048 42.578 34.5686 40.2979C34.3182 39.664 34.0896 38.9856 33.861 38.2849C32.7724 35.1374 31.9995 33.2244 29.6481 33.2244H19.0886C18.7999 33.2244 18.523 33.1072 18.3188 32.8986C18.1147 32.69 18 32.4072 18 32.1122C18 31.8172 18.1147 31.5343 18.3188 31.3258C18.523 31.1172 18.7999 31 19.0886 31H29.6481C33.7303 31 34.9387 34.6369 35.9184 37.5731C36.1361 38.2181 36.343 38.8521 36.5825 39.4527C37.5296 41.7772 42.4936 55.6018 45.1716 63.0313L45.3784 63.6319C45.477 63.9077 45.4648 64.2122 45.3445 64.4789C45.2242 64.7456 45.0055 64.9529 44.7361 65.0555C44.6195 65.1078 44.4934 65.1343 44.366 65.1333Z" fill="black"/>
<path d="M69.7006 59.7883C69.4856 59.7868 69.2761 59.7177 69.0999 59.5902C68.9237 59.4627 68.7891 59.2828 68.7139 59.0744L60.226 35.58L37.4253 44.0485C37.2921 44.108 37.1485 44.1385 37.0033 44.1382C36.8582 44.138 36.7147 44.1069 36.5817 44.0469C36.4487 43.9869 36.3289 43.8993 36.2299 43.7895C36.1308 43.6797 36.0546 43.5501 36.0059 43.4086C35.9572 43.2671 35.937 43.1167 35.9467 42.9669C35.9563 42.817 35.9956 42.6707 36.062 42.5372C36.1284 42.4036 36.2206 42.2856 36.3328 42.1903C36.445 42.0951 36.5749 42.0247 36.7145 41.9836L60.5018 33.1965C60.7637 33.1004 61.0515 33.1144 61.3034 33.2356C61.5554 33.3568 61.7514 33.5754 61.8493 33.8446L70.7085 58.3604C70.758 58.4953 70.7813 58.6389 70.7772 58.7831C70.7731 58.9273 70.7415 59.0693 70.6844 59.2008C70.6272 59.3324 70.5456 59.4511 70.4442 59.55C70.3427 59.6489 70.2234 59.7261 70.0931 59.7773C69.9638 59.8033 69.8311 59.807 69.7006 59.7883Z" fill="black"/>
<path d="M52.7165 49.1334C52.4733 49.1333 52.236 49.0669 52.037 48.9432C51.8379 48.8195 51.6867 48.6446 51.604 48.4422L47.6275 38.8075C47.5203 38.5477 47.5335 38.261 47.6644 38.0099C47.7952 37.7587 48.0329 37.5636 48.3257 37.467C48.4718 37.4184 48.6273 37.3959 48.7832 37.4007C48.9391 37.4055 49.0924 37.4375 49.2343 37.4949C49.3762 37.5523 49.5039 37.634 49.61 37.7353C49.716 37.8365 49.7985 37.9553 49.8525 38.0848L53.8172 47.73C53.9244 47.9898 53.9111 48.2765 53.7803 48.5276C53.6495 48.7788 53.4117 48.9739 53.1189 49.0705C52.9899 49.112 52.8538 49.1332 52.7165 49.1334Z" fill="black"/>
<path d="M45.9777 79C43.9914 79.0027 42.0767 78.2498 40.6141 76.8908C39.1515 75.5318 38.248 73.6661 38.083 71.6644C37.9181 69.6628 38.5037 67.6716 39.7237 66.0866C40.9437 64.5015 42.7087 63.4385 44.6681 63.1087C45.1006 63.0335 45.5388 62.9972 45.9777 63.0002C47.1463 62.9977 48.3008 63.2584 49.3573 63.7635C50.4138 64.2686 51.3457 65.0053 52.0855 65.9201C53.2608 67.345 53.8997 69.1446 53.8889 71.0001C53.886 73.1209 53.0516 75.154 51.5686 76.6537C50.0856 78.1534 48.075 78.9971 45.9777 79ZM45.9777 65.1711C45.6612 65.1686 45.3451 65.194 45.0331 65.2471C43.5562 65.49 42.2294 66.3009 41.3302 67.5103C40.4311 68.7197 40.0293 70.2339 40.2088 71.736C40.3884 73.2382 41.1354 74.6119 42.2936 75.5698C43.4519 76.5278 44.9315 76.9957 46.4231 76.8757C47.9147 76.7557 49.3026 76.0571 50.2965 74.9261C51.2904 73.795 51.8133 72.3192 51.7557 70.8072C51.6982 69.2953 51.0647 67.8644 49.9878 66.8139C48.9109 65.7635 47.474 65.1748 45.9777 65.1711Z" fill="black"/>
<path d="M48 99C38.5065 99 29.2262 96.0969 21.3326 90.6578C13.4391 85.2186 7.28681 77.4878 3.6538 68.4428C0.0207984 59.3979 -0.929763 49.4451 0.922328 39.843C2.77442 30.241 7.34597 21.4209 14.0589 14.4982C20.7718 7.57554 29.3246 2.86112 38.6357 0.951155C47.9468 -0.958813 57.598 0.0214356 66.3688 3.76797C75.1397 7.51451 82.6362 13.8591 87.9105 21.9993C93.1849 30.1395 96 39.7099 96 49.5C95.9883 62.6246 90.9275 75.2081 81.9283 84.4885C72.929 93.769 60.7268 98.988 48 99ZM48 2.26859C38.9416 2.26859 30.0866 5.03865 22.5548 10.2285C15.023 15.4184 9.15267 22.7949 5.68617 31.4253C2.21966 40.0558 1.31267 49.5524 3.07988 58.7144C4.84709 67.8764 9.20913 76.2923 15.6144 82.8977C22.0197 89.5031 30.1805 94.0015 39.0648 95.8239C47.9492 97.6464 57.1581 96.711 65.527 93.1362C73.8959 89.5613 81.0489 83.5076 86.0815 75.7404C91.1141 67.9732 93.8002 58.8415 93.8002 49.5C93.7827 36.98 88.9514 24.9782 80.3657 16.1263C71.7799 7.27435 60.1406 2.29493 48 2.27992V2.26859Z" fill="black"/>
</svg>
