<svg width="19" height="15" viewBox="0 0 19 15" fill="none" xmlns="http://www.w3.org/2000/svg">
<path d="M18.3394 2.52734C18.3394 2.05699 18.1532 1.60575 17.8215 1.27222C17.4899 0.938688 17.0397 0.749957 16.5693 0.747314H2.33936C1.86901 0.749957 1.41881 0.938688 1.08716 1.27222C0.755503 1.60575 0.569329 2.05699 0.569336 2.52734V13.1873C0.569329 13.6576 0.755503 14.1089 1.08716 14.4424C1.41881 14.7759 1.86901 14.9646 2.33936 14.9673H16.5593C17.0297 14.9646 17.4799 14.7759 17.8115 14.4424C18.1432 14.1089 18.3294 13.6576 18.3293 13.1873L18.3394 2.52734ZM16.5693 2.52734L9.45935 6.96729L2.34937 2.52734H16.5693ZM16.5693 13.1873H2.33936V4.30737L9.44934 8.74731L16.5593 4.30737L16.5693 13.1873Z" fill="black"/>
</svg>
