<svg width="58" height="58" viewBox="0 0 58 58" fill="none" xmlns="http://www.w3.org/2000/svg">
<path d="M28.9002 44.8201C28.7042 44.8186 28.5129 44.7595 28.3502 44.6501C28.0102 44.4101 19.9402 38.7701 18.0302 35.2301C15.8802 31.2301 14.5402 21.3001 14.4802 20.8701C14.4614 20.6639 14.5072 20.4569 14.611 20.2778C14.7149 20.0987 14.8719 19.9562 15.0602 19.8701L28.5302 14.1901C28.7678 14.0955 29.0326 14.0955 29.2702 14.1901L42.7402 19.8401C42.9285 19.9262 43.0854 20.0687 43.1893 20.2478C43.2932 20.4269 43.3389 20.6339 43.3202 20.8401C43.3202 21.2701 41.9302 31.2201 39.7802 35.2001C37.8602 38.7401 29.7802 44.3801 29.4502 44.6201C29.2909 44.7401 29.0994 44.8098 28.9002 44.8201ZM16.4902 21.3501C16.8402 23.7101 18.0502 31.2301 19.7102 34.3501C21.0202 36.7701 26.3502 40.9001 28.9002 42.7301C31.4502 40.9001 36.7802 36.7301 38.0902 34.3501C39.7602 31.2701 40.9702 23.7501 41.3202 21.3501L28.9002 16.1301L16.4902 21.3501Z" fill="black"/>
<path d="M26.52 35.4001C26.266 35.3965 26.0229 35.2964 25.84 35.1201L20.24 29.5201C20.1003 29.4469 19.9798 29.3416 19.8885 29.2129C19.7972 29.0842 19.7376 28.9357 19.7147 28.7796C19.6918 28.6235 19.7061 28.4642 19.7566 28.3146C19.807 28.1651 19.8921 28.0297 20.0049 27.9194C20.1177 27.809 20.2551 27.727 20.4057 27.6799C20.5563 27.6328 20.7159 27.622 20.8714 27.6484C21.027 27.6748 21.1741 27.7377 21.3008 27.8318C21.4274 27.9259 21.5299 28.0487 21.6 28.1901L26.52 33.1101L36.76 22.8701C36.9461 22.7743 37.1576 22.7394 37.3647 22.7702C37.5717 22.8009 37.7639 22.8959 37.9141 23.0417C38.0643 23.1875 38.1649 23.3767 38.2019 23.5827C38.2388 23.7888 38.2102 24.0012 38.12 24.1901L27.2 35.1201C27.0172 35.2964 26.774 35.3965 26.52 35.4001Z" fill="black"/>
<path d="M28.74 57.46C23.0573 57.462 17.5017 55.7787 12.7758 52.623C8.04982 49.4673 4.36586 44.981 2.18983 39.7314C0.0137861 34.4819 -0.556591 28.7049 0.550833 23.1312C1.65826 17.5575 4.39373 12.4373 8.4113 8.41839C12.4289 4.39942 17.548 1.66215 23.1214 0.552785C28.6947 -0.556579 34.4719 0.0117826 39.7222 2.18599C44.9725 4.36021 49.4601 8.0426 52.6174 12.7674C55.7748 17.4923 57.46 23.0473 57.46 28.73C57.4521 36.3455 54.424 43.647 49.04 49.0329C43.6559 54.4188 36.3555 57.4494 28.74 57.46ZM28.74 1.92003C23.4375 1.92003 18.2541 3.49239 13.8452 6.43831C9.43629 9.38423 5.99999 13.5714 3.9708 18.4703C1.94162 23.3692 1.41069 28.7598 2.44516 33.9604C3.47963 39.161 6.03303 43.9381 9.78248 47.6875C13.5319 51.437 18.309 53.9904 23.5096 55.0249C28.7103 56.0593 34.1009 55.5284 38.9998 53.4992C43.8986 51.47 48.0858 48.0337 51.0317 43.6249C53.9776 39.216 55.55 34.0325 55.55 28.73C55.5421 21.622 52.7149 14.8074 47.6888 9.78127C42.6626 4.75514 35.848 1.92797 28.74 1.92003Z" fill="black"/>
</svg>
