<svg width="19" height="19" viewBox="0 0 19 19" fill="none" xmlns="http://www.w3.org/2000/svg">
<path d="M15.9995 0.927246H2.3395C2.06504 0.927246 1.79327 0.981393 1.5397 1.08643C1.28613 1.19146 1.05567 1.34548 0.861596 1.53955C0.667522 1.73363 0.513626 1.96396 0.408593 2.21753C0.303561 2.4711 0.249536 2.74287 0.249536 3.01733V16.6772C0.248218 16.9525 0.301221 17.2255 0.405664 17.4802C0.510106 17.735 0.66385 17.9665 0.858056 18.1616C1.05226 18.3568 1.28315 18.5115 1.53738 18.6172C1.7916 18.7228 2.0642 18.7773 2.3395 18.7773H15.9995C16.2748 18.7773 16.5474 18.7228 16.8017 18.6172C17.0559 18.5115 17.2867 18.3568 17.4809 18.1616C17.6751 17.9665 17.8288 17.735 17.9333 17.4802C18.0377 17.2255 18.0908 16.9525 18.0895 16.6772V3.01733C18.0895 2.74287 18.0355 2.4711 17.9304 2.21753C17.8254 1.96396 17.6714 1.73363 17.4773 1.53955C17.2832 1.34548 17.0529 1.19146 16.7993 1.08643C16.5458 0.981393 16.274 0.927246 15.9995 0.927246ZM16.6995 16.6772C16.6995 16.8629 16.6258 17.0411 16.4945 17.1724C16.3633 17.3036 16.1852 17.3772 15.9995 17.3772H11.9995V11.7473H14.1496L14.5095 9.5874H11.9995V8.0874C11.9928 7.95193 12.0136 7.81637 12.0608 7.68921C12.108 7.56205 12.1805 7.44588 12.2741 7.34766C12.3676 7.24944 12.4802 7.17127 12.6049 7.11792C12.7296 7.06457 12.8639 7.03718 12.9995 7.03735H14.4295V4.8772H12.9995C12.578 4.87851 12.1608 4.96296 11.7719 5.12549C11.3829 5.28802 11.0297 5.52546 10.7326 5.82446C10.4354 6.12347 10.2002 6.47821 10.0401 6.86816C9.87996 7.25812 9.79815 7.67587 9.79946 8.09741V9.5874H7.7095V11.7473H9.79946V17.4272H2.3395C2.15385 17.4272 1.97578 17.3534 1.84451 17.2222C1.71323 17.0909 1.63955 16.9129 1.63955 16.7273V3.06738C1.63955 2.88173 1.71323 2.70354 1.84451 2.57227C1.97578 2.44099 2.15385 2.36743 2.3395 2.36743H15.9995C16.1852 2.36743 16.3633 2.44099 16.4945 2.57227C16.6258 2.70354 16.6995 2.88173 16.6995 3.06738V16.6772Z" fill="black"/>
</svg>
