<svg width="19" height="18" viewBox="0 0 19 18" fill="none" xmlns="http://www.w3.org/2000/svg">
<path fill-rule="evenodd" clip-rule="evenodd" d="M18.3391 8.55726C18.2864 6.31537 17.3642 4.18169 15.7673 2.6073C14.1704 1.03292 12.0239 0.141019 9.78149 0.120244C7.53909 0.0994692 5.37642 0.95145 3.75061 2.49598C2.1248 4.0405 1.16319 6.15657 1.06903 8.3971C1.06903 8.5271 1.06903 8.64723 1.06903 8.77723C1.0668 10.3399 1.49588 11.8727 2.30902 13.2072L0.749023 17.8073L5.52905 16.2872C6.84382 17.0019 8.32118 17.364 9.81738 17.3385C11.3136 17.313 12.7777 16.9006 14.0673 16.1415C15.3569 15.3824 16.4281 14.3025 17.1766 13.0067C17.9252 11.711 18.3257 10.2436 18.3391 8.7472V8.55726ZM9.69904 15.9872C8.27661 15.9899 6.88505 15.5725 5.69904 14.7872L2.90906 15.6771L3.81903 12.9972C2.87854 11.7781 2.3592 10.2867 2.33905 8.7472C2.33905 8.5072 2.33905 8.27725 2.33905 8.04725C2.53138 6.25224 3.3847 4.59303 4.73291 3.39246C6.08112 2.19189 7.82778 1.53567 9.633 1.55188C11.4382 1.5681 13.1728 2.25551 14.4992 3.48011C15.8256 4.70471 16.649 6.37895 16.809 8.17713C16.819 8.367 16.819 8.55733 16.809 8.7472C16.8065 10.6528 16.0539 12.4809 14.714 13.8358C13.374 15.1907 11.5545 15.9635 9.64905 15.9872H9.69904Z" fill="#141613"/>
<path fill-rule="evenodd" clip-rule="evenodd" d="M13.6093 10.5073C13.3893 10.3973 12.3593 9.88735 12.1593 9.81735C11.9593 9.74735 11.8293 9.71721 11.6793 9.92721C11.5293 10.1372 11.1293 10.6073 11.0093 10.7473C10.8893 10.8873 10.7693 10.9073 10.5493 10.7973C9.92779 10.5676 9.35212 10.229 8.84932 9.79733C8.38405 9.37728 7.98609 8.88829 7.66933 8.34738C7.64692 8.31326 7.63147 8.27493 7.62386 8.23483C7.61625 8.19472 7.61666 8.15344 7.62502 8.11349C7.63338 8.07354 7.64952 8.03561 7.67257 8.00192C7.69562 7.96823 7.72509 7.93947 7.7593 7.9172C7.8593 7.8172 7.9693 7.66733 8.0793 7.54733L8.15932 7.44723C8.21061 7.36828 8.25415 7.28456 8.28933 7.19723C8.3218 7.14098 8.33889 7.07712 8.33889 7.01217C8.33889 6.94722 8.3218 6.8836 8.28933 6.82736C8.22933 6.72736 7.80929 5.6873 7.62929 5.2673C7.44929 4.8473 7.27931 4.9172 7.14931 4.9172H6.74929C6.64167 4.91996 6.53577 4.94455 6.43782 4.98922C6.33988 5.0339 6.25197 5.09775 6.17934 5.17721C5.94069 5.40322 5.75162 5.67646 5.62423 5.97946C5.49683 6.28245 5.43385 6.60858 5.43929 6.93722C5.44576 7.18087 5.48276 7.42272 5.54934 7.65719C5.71721 8.18071 5.97428 8.67146 6.30928 9.10739C7.18956 10.4896 8.44523 11.5925 9.92934 12.2873C12.0793 13.1273 12.0793 12.8473 12.4693 12.8073C12.7648 12.7511 13.0449 12.6328 13.2914 12.4604C13.5379 12.2881 13.7451 12.0655 13.8993 11.8073C14.0432 11.4948 14.0852 11.145 14.0193 10.8073C13.9593 10.6673 13.8193 10.6073 13.6093 10.5073Z" fill="#141613"/>
</svg>
