<svg width="19" height="19" viewBox="0 0 19 19" fill="none" xmlns="http://www.w3.org/2000/svg">
<path d="M12.9594 0.557373H5.33936C3.94605 0.560022 2.61074 1.11541 1.62646 2.10156C0.642185 3.08772 0.089353 4.42408 0.0893555 5.81738V13.3872C0.089353 14.7805 0.642185 16.1171 1.62646 17.1033C2.61074 18.0894 3.94605 18.6446 5.33936 18.6472H12.9193C14.3126 18.6446 15.648 18.0894 16.6323 17.1033C17.6166 16.1171 18.1693 14.7805 18.1693 13.3872V5.81738C18.1694 4.43096 17.6221 3.1005 16.6465 2.11548C15.6708 1.13046 14.3457 0.570552 12.9594 0.557373ZM16.7993 13.3872C16.7993 14.4056 16.3948 15.3824 15.6747 16.1025C14.9545 16.8227 13.9778 17.2273 12.9594 17.2273H5.33936C4.32092 17.2273 3.34416 16.8227 2.62402 16.1025C1.90388 15.3824 1.49939 14.4056 1.49939 13.3872V5.81738C1.49939 4.79895 1.90388 3.82219 2.62402 3.10205C3.34416 2.38191 4.32092 1.97729 5.33936 1.97729H12.9193C13.9377 1.97729 14.9145 2.38191 15.6346 3.10205C16.3548 3.82219 16.7594 4.79895 16.7594 5.81738L16.7993 13.3872Z" fill="black"/>
<path d="M9.16923 4.74732C8.20363 4.74535 7.25919 5.02993 6.45536 5.56495C5.65153 6.09997 5.02449 6.86141 4.6536 7.75294C4.28271 8.64447 4.1847 9.62597 4.37186 10.5733C4.55903 11.5205 5.02291 12.391 5.70499 13.0745C6.38707 13.758 7.25663 14.2237 8.20353 14.4129C9.15043 14.602 10.1322 14.5058 11.0245 14.1367C11.9167 13.7677 12.6794 13.1423 13.2161 12.3396C13.7528 11.5369 14.0392 10.5928 14.0392 9.62721C14.0392 8.33468 13.5265 7.09508 12.6134 6.18019C11.7004 5.2653 10.4618 4.74997 9.16923 4.74732ZM9.16923 13.0874C8.48208 13.0894 7.80988 12.8871 7.23771 12.5066C6.66554 12.1261 6.21924 11.5844 5.95536 10.95C5.69149 10.3155 5.62196 9.61693 5.75553 8.94288C5.8891 8.26884 6.21972 7.64947 6.70561 7.16358C7.19149 6.67769 7.81074 6.34721 8.48478 6.21363C9.15882 6.08006 9.85739 6.14947 10.4919 6.41334C11.1263 6.67722 11.6681 7.12364 12.0486 7.69581C12.4291 8.26798 12.6313 8.94006 12.6293 9.62721C12.6214 10.5406 12.2537 11.4141 11.606 12.0581C10.9583 12.7021 10.0826 13.0648 9.16923 13.0674V13.0874Z" fill="black"/>
<path d="M14.1193 5.36743C14.5114 5.36743 14.8292 5.04935 14.8292 4.65723C14.8292 4.2651 14.5114 3.94727 14.1193 3.94727C13.7271 3.94727 13.4092 4.2651 13.4092 4.65723C13.4092 5.04935 13.7271 5.36743 14.1193 5.36743Z" fill="black"/>
</svg>
