<svg width="17" height="17" viewBox="0 0 17 17" fill="none" xmlns="http://www.w3.org/2000/svg">
<path d="M3.50928 1.92715C3.56775 2.72542 3.70512 3.51605 3.91931 4.28726L2.82929 5.38711C2.45123 4.26831 2.21931 3.10539 2.13929 1.92715H3.50928ZM12.5093 12.9272C13.2821 13.1493 14.0767 13.287 14.8793 13.3373V14.6972C13.6988 14.6157 12.5332 14.3873 11.4093 14.0172L12.5093 12.9272ZM4.3993 0.157131H1.20929C0.967946 0.157131 0.736518 0.253075 0.56586 0.423733C0.395202 0.594391 0.29932 0.825941 0.29932 1.06729C0.298005 3.10183 0.697732 5.11656 1.47571 6.99649C2.25369 8.87641 3.39461 10.5847 4.83326 12.0233C6.2719 13.462 7.98006 14.6028 9.85999 15.3808C11.7399 16.1587 13.7548 16.5586 15.7893 16.5573C16.0307 16.5573 16.2621 16.4613 16.4327 16.2907C16.6034 16.12 16.6993 15.8885 16.6993 15.6471V12.4672C16.6993 12.2258 16.6034 11.9943 16.4327 11.8236C16.2621 11.653 16.0307 11.5573 15.7893 11.5573C14.6851 11.5594 13.5877 11.3838 12.5393 11.0373C12.4435 11.0189 12.3451 11.0189 12.2493 11.0373C12.13 11.0376 12.0121 11.0617 11.9022 11.1081C11.7924 11.1544 11.6928 11.2221 11.6093 11.3073L9.60932 13.3073C7.02679 11.9898 4.92676 9.88981 3.60932 7.30728L5.60932 5.30728C5.73133 5.18965 5.81765 5.03992 5.85834 4.87539C5.89903 4.71087 5.89242 4.53805 5.8393 4.3771C5.49186 3.32889 5.31624 2.23139 5.31928 1.1271C5.33518 0.996996 5.3228 0.865012 5.28296 0.740139C5.24312 0.615266 5.17675 0.500571 5.08844 0.403713C5.00013 0.306855 4.89198 0.230277 4.7713 0.179104C4.65063 0.127931 4.5203 0.103478 4.38929 0.107327L4.3993 0.157131Z" fill="black"/>
</svg>
