<svg width="41" height="41" viewBox="0 0 41 41" fill="none" xmlns="http://www.w3.org/2000/svg">
<path d="M20.1223 40.24C15.4425 40.2405 10.9089 38.6097 7.30175 35.6283C3.69463 32.6468 1.2396 28.5012 0.359248 23.905C-0.521108 19.3087 0.228275 14.5493 2.47839 10.446C4.7285 6.34266 8.33861 3.15202 12.6874 1.42322C17.0361 -0.305577 21.8516 -0.464382 26.3048 0.974135C30.758 2.41265 34.5705 5.35851 37.0861 9.30468C39.6016 13.2509 40.6629 17.9505 40.0873 22.5948C39.5117 27.239 37.3352 31.5374 33.9324 34.75C30.205 38.2858 25.2599 40.2517 20.1223 40.24ZM20.1223 1.99C15.3156 1.9953 10.7072 3.90711 7.30834 7.306C3.90946 10.7049 1.9976 15.3133 1.9923 20.12C2.10349 24.8533 4.06187 29.3554 7.44885 32.6637C10.8358 35.9721 15.3827 37.8242 20.1173 37.8242C24.8519 37.8242 29.3988 35.9721 32.7858 32.6637C36.1727 29.3554 38.1311 24.8533 38.2423 20.12C38.2397 15.3142 36.33 10.7058 32.9327 7.30661C29.5354 3.90744 24.9281 1.9953 20.1223 1.99Z" fill="black"/>
<path d="M20.1223 40.24C14.9778 40.2568 10.0247 38.2906 6.29236 34.75L5.63232 34.12L6.19226 33.4C7.85508 31.3014 9.97095 29.606 12.3815 28.4405C14.792 27.2749 17.4348 26.6696 20.1123 26.6696C22.7898 26.6696 25.4326 27.2749 27.8431 28.4405C30.2537 29.606 32.3695 31.3014 34.0323 33.4L34.6023 34.12L33.9324 34.75C30.205 38.2858 25.2599 40.2517 20.1223 40.24ZM8.37231 33.93C11.6507 36.7179 15.8138 38.2487 20.1173 38.2487C24.4208 38.2487 28.5839 36.7179 31.8623 33.93C30.3841 32.2778 28.5739 30.9562 26.55 30.0513C24.5262 29.1464 22.3342 28.6787 20.1173 28.6787C17.9004 28.6787 15.7084 29.1464 13.6846 30.0513C11.6607 30.9562 9.85055 32.2778 8.37231 33.93Z" fill="black"/>
<path d="M20.1123 21.39C18.8109 21.39 17.5387 21.0041 16.4566 20.2811C15.3745 19.558 14.5312 18.5304 14.0332 17.328C13.5351 16.1257 13.4048 14.8027 13.6586 13.5263C13.9125 12.2499 14.5393 11.0775 15.4595 10.1572C16.3798 9.23699 17.5522 8.61031 18.8286 8.35642C20.105 8.10253 21.428 8.23283 22.6303 8.73086C23.8327 9.22888 24.8603 10.0723 25.5833 11.1543C26.3063 12.2364 26.6922 13.5086 26.6922 14.81C26.6922 16.5551 25.9991 18.2288 24.7651 19.4627C23.5311 20.6967 21.8574 21.39 20.1123 21.39ZM20.1123 10.24C19.206 10.24 18.3201 10.5089 17.5667 11.0126C16.8133 11.5163 16.2263 12.2321 15.88 13.0696C15.5336 13.9071 15.4435 14.8285 15.621 15.7172C15.7986 16.6059 16.2357 17.4219 16.8773 18.0621C17.5188 18.7022 18.3358 19.1376 19.2249 19.3132C20.114 19.4888 21.0352 19.3967 21.8719 19.0485C22.7086 18.7003 23.4232 18.1117 23.9252 17.3572C24.4273 16.6027 24.6942 15.7162 24.6922 14.81C24.6896 13.597 24.2059 12.4347 23.3472 11.5779C22.4886 10.7211 21.3252 10.24 20.1123 10.24Z" fill="black"/>
</svg>
