<svg width="58" height="58" viewBox="0 0 58 58" fill="none" xmlns="http://www.w3.org/2000/svg">
<path d="M38.27 41.7101H19.12C17.5693 41.7075 16.0829 41.0903 14.9864 39.9938C13.8899 38.8973 13.2727 37.4109 13.27 35.8602V24.2501C13.2727 22.6994 13.8899 21.213 14.9864 20.1165C16.0829 19.02 17.5693 18.4028 19.12 18.4001H38.27C39.8207 18.4028 41.3072 19.02 42.4037 20.1165C43.5002 21.213 44.1174 22.6994 44.12 24.2501V35.8602C44.1174 37.4109 43.5002 38.8973 42.4037 39.9938C41.3072 41.0903 39.8207 41.7075 38.27 41.7101ZM19.12 20.4001C18.0998 20.4028 17.122 20.8093 16.4006 21.5307C15.6791 22.2521 15.2727 23.2299 15.27 24.2501V35.8602C15.2727 36.8804 15.6791 37.8581 16.4006 38.5796C17.122 39.301 18.0998 39.7075 19.12 39.7101H38.27C39.2903 39.7075 40.268 39.301 40.9895 38.5796C41.7109 37.8581 42.1174 36.8804 42.12 35.8602V24.2501C42.1174 23.2299 41.7109 22.2521 40.9895 21.5307C40.268 20.8093 39.2903 20.4028 38.27 20.4001H19.12Z" fill="black"/>
<path d="M23.4399 30.5601H17.4399C17.1747 30.5601 16.9204 30.4547 16.7328 30.2672C16.5453 30.0796 16.4399 29.8253 16.4399 29.5601V23.5601C16.4399 23.2948 16.5453 23.0405 16.7328 22.853C16.9204 22.6654 17.1747 22.5601 17.4399 22.5601H23.4399C23.7052 22.5601 23.9595 22.6654 24.147 22.853C24.3346 23.0405 24.4399 23.2948 24.4399 23.5601V29.5601C24.4399 29.8253 24.3346 30.0796 24.147 30.2672C23.9595 30.4547 23.7052 30.5601 23.4399 30.5601ZM18.4399 28.5601H22.4399V24.5601H18.4399V28.5601Z" fill="black"/>
<path d="M23.0798 36.98H17.7798C17.5146 36.98 17.2602 36.8746 17.0727 36.6871C16.8851 36.4995 16.7798 36.2452 16.7798 35.98C16.7798 35.7148 16.8851 35.4604 17.0727 35.2729C17.2602 35.0853 17.5146 34.98 17.7798 34.98H23.0798C23.345 34.98 23.5994 35.0853 23.7869 35.2729C23.9744 35.4604 24.0798 35.7148 24.0798 35.98C24.0798 36.2452 23.9744 36.4995 23.7869 36.6871C23.5994 36.8746 23.345 36.98 23.0798 36.98Z" fill="black"/>
<path d="M31.34 36.98H26C25.7348 36.98 25.4804 36.8746 25.2929 36.6871C25.1054 36.4995 25 36.2452 25 35.98C25 35.7148 25.1054 35.4604 25.2929 35.2729C25.4804 35.0853 25.7348 34.98 26 34.98H31.3C31.5652 34.98 31.8196 35.0853 32.0071 35.2729C32.1946 35.4604 32.3 35.7148 32.3 35.98C32.3 36.2452 32.1946 36.4995 32.0071 36.6871C31.8196 36.8746 31.5652 36.98 31.3 36.98H31.34Z" fill="black"/>
<path d="M39.56 36.98H34.25C33.9848 36.98 33.7304 36.8746 33.5429 36.6871C33.3554 36.4995 33.25 36.2452 33.25 35.98C33.25 35.7148 33.3554 35.4604 33.5429 35.2729C33.7304 35.0853 33.9848 34.98 34.25 34.98H39.56C39.8252 34.98 40.0796 35.0853 40.2671 35.2729C40.4546 35.4604 40.56 35.7148 40.56 35.98C40.56 36.2452 40.4546 36.4995 40.2671 36.6871C40.0796 36.8746 39.8252 36.98 39.56 36.98Z" fill="black"/>
<path d="M39.5598 24.8201H36.3198C36.0546 24.8201 35.8003 24.7147 35.6127 24.5272C35.4252 24.3396 35.3198 24.0853 35.3198 23.8201C35.3198 23.5549 35.4252 23.3005 35.6127 23.113C35.8003 22.9254 36.0546 22.8201 36.3198 22.8201H39.5598C39.825 22.8201 40.0794 22.9254 40.2669 23.113C40.4545 23.3005 40.5598 23.5549 40.5598 23.8201C40.5598 24.0853 40.4545 24.3396 40.2669 24.5272C40.0794 24.7147 39.825 24.8201 39.5598 24.8201Z" fill="black"/>
<path d="M28.7 57.38C23.0252 57.382 17.4773 55.7011 12.758 52.5498C8.03862 49.3985 4.35979 44.9184 2.18678 39.6761C0.013768 34.4339 -0.555816 28.665 0.550065 23.099C1.65595 17.533 4.38761 12.42 8.39958 8.40666C12.4116 4.39329 17.5236 1.65984 23.0892 0.552016C28.6548 -0.555805 34.4239 0.0117671 39.6669 2.18295C44.9099 4.35414 49.3912 8.0314 52.5442 12.7497C55.6971 17.4679 57.38 23.0152 57.38 28.69C57.3721 36.2949 54.3482 43.5862 48.9717 48.9646C43.5951 54.343 36.3049 57.3694 28.7 57.38ZM28.7 2.00001C23.4208 1.99804 18.2596 3.56171 13.8691 6.49324C9.47866 9.42477 6.05618 13.5925 4.03454 18.4693C2.0129 23.3461 1.48293 28.7128 2.51164 33.8909C3.54035 39.0689 6.08153 43.8255 9.81379 47.5592C13.5461 51.2928 18.3017 53.8358 23.4794 54.8664C28.657 55.8971 34.024 55.3691 38.9015 53.3493C43.7791 51.3295 47.9481 47.9086 50.8812 43.5192C53.8144 39.1299 55.38 33.9692 55.38 28.69C55.3721 21.6156 52.5589 14.833 47.5575 9.82963C42.556 4.82629 35.7745 2.0106 28.7 2.00001Z" fill="black"/>
</svg>
