<svg width="13" height="19" viewBox="0 0 13 19" fill="none" xmlns="http://www.w3.org/2000/svg">
<path d="M6.48939 0.0473711C5.64593 0.0460542 4.81046 0.211286 4.03095 0.533455C3.25145 0.855624 2.5432 1.3284 1.94679 1.92481C1.35037 2.52123 0.877535 3.22954 0.555367 4.00904C0.233198 4.78855 0.0680269 5.62384 0.0693438 6.46729C0.0693438 11.2873 6.48939 18.3872 6.48939 18.3872C6.48939 18.3872 12.9094 11.2873 12.9094 6.46729C12.9107 5.62384 12.7455 4.78855 12.4233 4.00904C12.1012 3.22954 11.6283 2.52123 11.0319 1.92481C10.4355 1.3284 9.72727 0.855624 8.94776 0.533455C8.16826 0.211286 7.33284 0.0460542 6.48939 0.0473711ZM1.89936 6.46729C1.89936 5.24995 2.38293 4.08248 3.24372 3.22169C4.10451 2.3609 5.27204 1.87721 6.48939 1.87721C7.70673 1.87721 8.8742 2.3609 9.73499 3.22169C10.5958 4.08248 11.0794 5.24995 11.0794 6.46729C11.0794 9.10729 8.42939 13.0674 6.48939 15.5274C4.57939 13.0774 1.89936 9.07729 1.89936 6.46729Z" fill="black"/>
<path d="M6.48926 8.75732C7.75399 8.75732 8.77924 7.73202 8.77924 6.46729C8.77924 5.20255 7.75399 4.17725 6.48926 4.17725C5.22453 4.17725 4.19922 5.20255 4.19922 6.46729C4.19922 7.73202 5.22453 8.75732 6.48926 8.75732Z" fill="black"/>
</svg>
